<?xml version="1.0" encoding="UTF-8" standalone="no"?>
<!-- Created with Inkscape (http://www.inkscape.org/) -->

<svg
   width="549.89618"
   height="177.96808"
   viewBox="0 0 145.49336 47.087387"
   version="1.1"
   id="svg5"
   xml:space="preserve"
   xmlns="http://www.w3.org/2000/svg"
   xmlns:svg="http://www.w3.org/2000/svg"><defs
     id="defs2" /><g
     id="g20686"
     transform="translate(86.804761,-216.95833)"><g
       id="g9064"
       transform="translate(-89.998404,91.679567)"
       style="fill:#042560;fill-opacity:1"><g
         aria-label="LA COMPUTACIÓN"
         transform="matrix(1.0797558,0,0,1.0797558,-78.226786,27.997888)"
         id="text521"
         style="font-size:10.455px;line-height:1.25;font-family:'IBM Plex Sans';-inkscape-font-specification:'IBM Plex Sans, Normal';letter-spacing:0.156826px;word-spacing:0px;white-space:pre;inline-size:109.81;display:inline;stroke-width:0.24504"><path
           d="m 114.68932,133.47993 v -7.46348 h 1.58254 v 6.15661 h 3.02725 v 1.30687 z"
           style="font-weight:bold;font-family:'Open Sans';-inkscape-font-specification:'Open Sans Bold'"
           id="path2920" /><path
           d="m 125.32156,133.47993 -0.54113,-1.77653 h -2.72095 l -0.54113,1.77653 h -1.70506 l 2.63417,-7.49411 h 1.93479 l 2.64438,7.49411 z m -0.91889,-3.10382 q -0.75044,-2.41466 -0.84743,-2.73117 -0.0919,-0.31651 -0.13273,-0.50029 -0.16846,0.65344 -0.96484,3.23146 z"
           style="font-weight:bold;font-family:'Open Sans';-inkscape-font-specification:'Open Sans Bold'"
           id="path2922" /><path
           d="m 134.16564,127.22633 q -0.89337,0 -1.38345,0.67386 -0.49008,0.66875 -0.49008,1.86842 0,2.49634 1.87353,2.49634 0.78616,0 1.90415,-0.39308 v 1.32729 q -0.91889,0.38287 -2.0522,0.38287 -1.62849,0 -2.49123,-0.98526 -0.86274,-0.99036 -0.86274,-2.83837 0,-1.16393 0.42371,-2.03688 0.42372,-0.87806 1.21499,-1.34261 0.79638,-0.46966 1.86332,-0.46966 1.08736,0 2.18493,0.52581 l -0.5105,1.28646 q -0.41861,-0.1991 -0.84232,-0.34714 -0.42371,-0.14805 -0.83211,-0.14805 z"
           style="font-weight:bold;font-family:'Open Sans';-inkscape-font-specification:'Open Sans Bold'"
           id="path2924" /><path
           d="m 144.37927,129.73798 q 0,1.85311 -0.91889,2.84858 -0.9189,0.99547 -2.63417,0.99547 -1.71528,0 -2.63417,-0.99547 -0.9189,-0.99547 -0.9189,-2.85879 0,-1.86331 0.9189,-2.84347 0.924,-0.98526 2.64438,-0.98526 1.72037,0 2.62906,0.99036 0.91379,0.99037 0.91379,2.84858 z m -5.44701,0 q 0,1.25072 0.47476,1.88374 0.47477,0.63302 1.41919,0.63302 1.89394,0 1.89394,-2.51676 0,-2.52186 -1.88373,-2.52186 -0.94442,0 -1.42429,0.63813 -0.47987,0.63301 -0.47987,1.88373 z"
           style="font-weight:bold;font-family:'Open Sans';-inkscape-font-specification:'Open Sans Bold'"
           id="path2926" /><path
           d="m 149.24289,133.47993 -1.79695,-5.85541 h -0.046 q 0.097,1.78675 0.097,2.38403 v 3.47138 h -1.41408 v -7.46348 h 2.1543 l 1.76632,5.70737 h 0.0306 l 1.87353,-5.70737 h 2.1543 v 7.46348 h -1.47534 v -3.53264 q 0,-0.25015 0.005,-0.57686 0.0102,-0.32672 0.0715,-1.7357 h -0.046 l -1.92457,5.8452 z"
           style="font-weight:bold;font-family:'Open Sans';-inkscape-font-specification:'Open Sans Bold'"
           id="path2928" /><path
           d="m 157.67999,129.52868 h 0.52071 q 0.73001,0 1.09247,-0.28588 0.36245,-0.29098 0.36245,-0.84232 0,-0.55644 -0.3063,-0.8219 -0.30119,-0.26546 -0.94952,-0.26546 h -0.71981 z m 3.57349,-1.18436 q 0,1.20478 -0.75554,1.8429 -0.75043,0.63812 -2.13898,0.63812 h -0.67897 v 2.65459 h -1.58254 v -7.46348 h 2.38403 q 1.35792,0 2.06241,0.58708 0.70959,0.58196 0.70959,1.74079 z"
           style="font-weight:bold;font-family:'Open Sans';-inkscape-font-specification:'Open Sans Bold'"
           id="path2930" /><path
           d="m 168.89421,126.01645 v 4.82931 q 0,0.82701 -0.37266,1.44982 -0.36756,0.62281 -1.06694,0.95463 -0.69939,0.33182 -1.65402,0.33182 -1.4396,0 -2.23598,-0.73511 -0.79638,-0.74023 -0.79638,-2.02158 v -4.80889 h 1.57744 v 4.56896 q 0,0.86274 0.34714,1.26604 0.34714,0.40329 1.14862,0.40329 0.77596,0 1.1231,-0.40329 0.35224,-0.4084 0.35224,-1.27625 v -4.55875 z"
           style="font-weight:bold;font-family:'Open Sans';-inkscape-font-specification:'Open Sans Bold'"
           id="path2932" /><path
           d="m 173.75783,133.47993 h -1.58254 v -6.14639 h -2.02668 v -1.31709 h 5.6359 v 1.31709 h -2.02668 z"
           style="font-weight:bold;font-family:'Open Sans';-inkscape-font-specification:'Open Sans Bold'"
           id="path2934" /><path
           d="m 180.9289,133.47993 -0.54113,-1.77653 h -2.72095 l -0.54113,1.77653 h -1.70507 l 2.63417,-7.49411 h 1.93479 l 2.64438,7.49411 z m -0.9189,-3.10382 q -0.75043,-2.41466 -0.84743,-2.73117 -0.0919,-0.31651 -0.13273,-0.50029 -0.16846,0.65344 -0.96484,3.23146 z"
           style="font-weight:bold;font-family:'Open Sans';-inkscape-font-specification:'Open Sans Bold'"
           id="path2936" /><path
           d="m 186.69099,127.22633 q -0.89337,0 -1.38345,0.67386 -0.49008,0.66875 -0.49008,1.86842 0,2.49634 1.87353,2.49634 0.78617,0 1.90416,-0.39308 v 1.32729 q -0.9189,0.38287 -2.0522,0.38287 -1.62849,0 -2.49123,-0.98526 -0.86275,-0.99036 -0.86275,-2.83837 0,-1.16393 0.42372,-2.03688 0.42371,-0.87806 1.21498,-1.34261 0.79638,-0.46966 1.86332,-0.46966 1.08736,0 2.18493,0.52581 l -0.5105,1.28646 q -0.4186,-0.1991 -0.84232,-0.34714 -0.42371,-0.14805 -0.83211,-0.14805 z"
           style="font-weight:bold;font-family:'Open Sans';-inkscape-font-specification:'Open Sans Bold'"
           id="path2938" /><path
           d="m 190.33962,133.47993 v -7.46348 h 1.58255 v 7.46348 z"
           style="font-weight:bold;font-family:'Open Sans';-inkscape-font-specification:'Open Sans Bold'"
           id="path2940" /><path
           d="m 200.73194,129.73798 q 0,1.85311 -0.9189,2.84858 -0.9189,0.99547 -2.63417,0.99547 -1.71527,0 -2.63417,-0.99547 -0.9189,-0.99547 -0.9189,-2.85879 0,-1.86331 0.9189,-2.84347 0.924,-0.98526 2.64438,-0.98526 1.72038,0 2.62906,0.99036 0.9138,0.99037 0.9138,2.84858 z m -5.44702,0 q 0,1.25072 0.47477,1.88374 0.47476,0.63302 1.41918,0.63302 1.89395,0 1.89395,-2.51676 0,-2.52186 -1.88374,-2.52186 -0.94442,0 -1.42429,0.63813 -0.47987,0.63301 -0.47987,1.88373 z m 1.09247,-4.31881 v -0.13783 q 0.87805,-1.021 1.19967,-1.5366 h 1.7459 v 0.1072 q -0.26546,0.26546 -0.90869,0.79127 -0.63812,0.52071 -1.00057,0.77596 z"
           style="font-weight:bold;font-family:'Open Sans';-inkscape-font-specification:'Open Sans Bold'"
           id="path2942" /><path
           d="m 209.05673,133.47993 h -2.01136 l -3.24677,-5.6461 h -0.0459 q 0.097,1.49576 0.097,2.13388 v 3.51222 h -1.41408 v -7.46348 h 1.99605 l 3.24166,5.58996 h 0.0357 q -0.0766,-1.45492 -0.0766,-2.05731 v -3.53265 h 1.42429 z"
           style="font-weight:bold;font-family:'Open Sans';-inkscape-font-specification:'Open Sans Bold'"
           id="path2944" /></g><g
         aria-label="EN CIENCIAS DE"
         transform="matrix(1.0797558,0,0,1.0797558,-78.226786,13.700308)"
         id="text493"
         style="font-size:10.455px;line-height:1.25;font-family:'IBM Plex Sans';-inkscape-font-specification:'IBM Plex Sans, Normal';letter-spacing:0.156826px;word-spacing:0px;white-space:pre;inline-size:109.81;display:inline;stroke-width:0.24504"><path
           d="m 118.98771,133.47993 h -4.29839 v -7.46348 h 4.29839 v 1.29667 h -2.71585 v 1.6387 h 2.52697 v 1.29666 h -2.52697 v 1.92458 h 2.71585 z"
           style="font-weight:bold;font-family:'Open Sans';-inkscape-font-specification:'Open Sans Bold'"
           id="path2895" /><path
           d="m 127.32271,133.47993 h -2.01136 l -3.24677,-5.6461 h -0.0459 q 0.097,1.49576 0.097,2.13388 v 3.51222 h -1.41408 v -7.46348 h 1.99605 l 3.24166,5.58996 h 0.0357 q -0.0766,-1.45492 -0.0766,-2.05731 v -3.53265 h 1.42429 z"
           style="font-weight:bold;font-family:'Open Sans';-inkscape-font-specification:'Open Sans Bold'"
           id="path2897" /><path
           d="m 135.40104,127.22633 q -0.89337,0 -1.38345,0.67386 -0.49008,0.66875 -0.49008,1.86842 0,2.49634 1.87353,2.49634 0.78617,0 1.90416,-0.39308 v 1.32729 q -0.9189,0.38287 -2.0522,0.38287 -1.62849,0 -2.49123,-0.98526 -0.86274,-0.99036 -0.86274,-2.83837 0,-1.16393 0.42371,-2.03688 0.42371,-0.87806 1.21498,-1.34261 0.79638,-0.46966 1.86332,-0.46966 1.08736,0 2.18493,0.52581 l -0.51049,1.28646 q -0.41861,-0.1991 -0.84233,-0.34714 -0.42371,-0.14805 -0.83211,-0.14805 z"
           style="font-weight:bold;font-family:'Open Sans';-inkscape-font-specification:'Open Sans Bold'"
           id="path2899" /><path
           d="m 139.04967,133.47993 v -7.46348 h 1.58255 v 7.46348 z"
           style="font-weight:bold;font-family:'Open Sans';-inkscape-font-specification:'Open Sans Bold'"
           id="path2901" /><path
           d="m 146.96607,133.47993 h -4.29839 v -7.46348 h 4.29839 v 1.29667 h -2.71585 v 1.6387 h 2.52696 v 1.29666 h -2.52696 v 1.92458 h 2.71585 z"
           style="font-weight:bold;font-family:'Open Sans';-inkscape-font-specification:'Open Sans Bold'"
           id="path2903" /><path
           d="m 155.30107,133.47993 h -2.01136 l -3.24677,-5.6461 h -0.0459 q 0.097,1.49576 0.097,2.13388 v 3.51222 h -1.41408 v -7.46348 h 1.99605 l 3.24166,5.58996 h 0.0357 q -0.0766,-1.45492 -0.0766,-2.05731 v -3.53265 h 1.42429 z"
           style="font-weight:bold;font-family:'Open Sans';-inkscape-font-specification:'Open Sans Bold'"
           id="path2905" /><path
           d="m 160.50673,127.22633 q -0.89338,0 -1.38345,0.67386 -0.49008,0.66875 -0.49008,1.86842 0,2.49634 1.87353,2.49634 0.78616,0 1.90415,-0.39308 v 1.32729 q -0.91889,0.38287 -2.0522,0.38287 -1.62849,0 -2.49123,-0.98526 -0.86274,-0.99036 -0.86274,-2.83837 0,-1.16393 0.42371,-2.03688 0.42372,-0.87806 1.21499,-1.34261 0.79638,-0.46966 1.86332,-0.46966 1.08736,0 2.18493,0.52581 l -0.5105,1.28646 q -0.41861,-0.1991 -0.84232,-0.34714 -0.42372,-0.14805 -0.83211,-0.14805 z"
           style="font-weight:bold;font-family:'Open Sans';-inkscape-font-specification:'Open Sans Bold'"
           id="path2907" /><path
           d="m 164.15536,133.47993 v -7.46348 h 1.58254 v 7.46348 z"
           style="font-weight:bold;font-family:'Open Sans';-inkscape-font-specification:'Open Sans Bold'"
           id="path2909" /><path
           d="m 172.34232,133.47993 -0.54113,-1.77653 h -2.72095 l -0.54113,1.77653 h -1.70506 l 2.63417,-7.49411 h 1.93478 l 2.64438,7.49411 z m -0.9189,-3.10382 q -0.75043,-2.41466 -0.84742,-2.73117 -0.0919,-0.31651 -0.13273,-0.50029 -0.16847,0.65344 -0.96484,3.23146 z"
           style="font-weight:bold;font-family:'Open Sans';-inkscape-font-specification:'Open Sans Bold'"
           id="path2911" /><path
           d="m 179.54912,131.40731 q 0,1.01079 -0.73001,1.59276 -0.72491,0.58196 -2.02157,0.58196 -1.19457,0 -2.11346,-0.44923 v -1.47024 q 0.75553,0.33693 1.27624,0.47476 0.52581,0.13784 0.95974,0.13784 0.52071,0 0.79637,-0.19909 0.28078,-0.1991 0.28078,-0.59218 0,-0.21952 -0.12252,-0.38798 -0.12252,-0.17357 -0.36245,-0.33182 -0.23483,-0.15826 -0.96485,-0.5054 -0.68406,-0.32161 -1.0261,-0.6177 -0.34203,-0.29609 -0.54623,-0.68917 -0.2042,-0.39309 -0.2042,-0.9189 0,-0.99037 0.66875,-1.55702 0.67386,-0.56665 1.85822,-0.56665 0.58196,0 1.10778,0.13783 0.53092,0.13784 1.10778,0.38798 l -0.5105,1.2303 q -0.59728,-0.24504 -0.99037,-0.34203 -0.38797,-0.097 -0.76574,-0.097 -0.44924,0 -0.68918,0.20931 -0.23993,0.2093 -0.23993,0.54623 0,0.2093 0.097,0.36756 0.097,0.15315 0.3063,0.30119 0.21441,0.14294 1.00568,0.52071 1.04653,0.50029 1.4345,1.00568 0.38798,0.50029 0.38798,1.2303 z"
           style="font-weight:bold;font-family:'Open Sans';-inkscape-font-specification:'Open Sans Bold'"
           id="path2913" /><path
           d="m 190.12378,129.67672 q 0,1.8429 -1.05162,2.82306 -1.04652,0.98015 -3.02726,0.98015 h -2.11346 v -7.46348 h 2.34319 q 1.82758,0 2.83837,0.96484 1.01078,0.96485 1.01078,2.69543 z m -1.6438,0.0408 q 0,-2.40444 -2.12367,-2.40444 h -0.84232 v 4.85994 h 0.67896 q 2.28703,0 2.28703,-2.4555 z"
           style="font-weight:bold;font-family:'Open Sans';-inkscape-font-specification:'Open Sans Bold'"
           id="path2915" /><path
           d="m 196.12582,133.47993 h -4.2984 v -7.46348 h 4.2984 v 1.29667 h -2.71585 v 1.6387 h 2.52696 v 1.29666 h -2.52696 v 1.92458 h 2.71585 z"
           style="font-weight:bold;font-family:'Open Sans';-inkscape-font-specification:'Open Sans Bold'"
           id="path2917" /></g><g
         aria-label="LICENCIATURA"
         transform="matrix(1.0797558,0,0,1.0797558,-78.226786,-0.07265678)"
         id="text356"
         style="font-size:10.455px;line-height:1.25;font-family:'IBM Plex Sans';-inkscape-font-specification:'IBM Plex Sans, Normal';letter-spacing:0.79638px;word-spacing:0px;white-space:pre;inline-size:109.81;display:inline;stroke-width:0.24504"><path
           d="m 114.7761,133.47993 v -7.46348 h 0.86785 v 6.67732 h 3.29271 v 0.78616 z"
           style="font-family:'Open Sans';-inkscape-font-specification:'Open Sans'"
           id="path2870" /><path
           d="m 120.99908,133.47993 v -7.46348 h 0.86784 v 7.46348 z"
           style="font-family:'Open Sans';-inkscape-font-specification:'Open Sans'"
           id="path2872" /><path
           d="m 127.90612,126.68521 q -1.2303,0 -1.945,0.8219 -0.70959,0.81679 -0.70959,2.24108 0,1.46513 0.68406,2.26662 0.68918,0.79637 1.96032,0.79637 0.78106,0 1.78164,-0.28077 v 0.76064 q -0.77596,0.29098 -1.91437,0.29098 -1.64891,0 -2.54739,-1.00057 -0.89337,-1.00058 -0.89337,-2.84348 0,-1.15372 0.42882,-2.02157 0.43392,-0.86784 1.24561,-1.3375 0.8168,-0.46966 1.91948,-0.46966 1.17414,0 2.0522,0.42882 l -0.36756,0.74532 q -0.84743,-0.39818 -1.69485,-0.39818 z"
           style="font-family:'Open Sans';-inkscape-font-specification:'Open Sans'"
           id="path2874" /><path
           d="m 136.26297,133.47993 h -4.16056 v -7.46348 h 4.16056 v 0.77086 h -3.29271 v 2.40444 h 3.09362 v 0.76575 h -3.09362 v 2.74648 h 3.29271 z"
           style="font-family:'Open Sans';-inkscape-font-specification:'Open Sans'"
           id="path2876" /><path
           d="m 144.54325,133.47993 h -0.99036 l -4.07888,-6.26381 h -0.0408 q 0.0817,1.10268 0.0817,2.02158 v 4.24223 h -0.80148 v -7.46348 h 0.98015 l 4.06867,6.23829 h 0.0408 q -0.0102,-0.13784 -0.0459,-0.88316 -0.0357,-0.75043 -0.0255,-1.07205 v -4.28308 h 0.81169 z"
           style="font-family:'Open Sans';-inkscape-font-specification:'Open Sans'"
           id="path2878" /><path
           d="m 150.58755,126.68521 q -1.2303,0 -1.94499,0.8219 -0.7096,0.81679 -0.7096,2.24108 0,1.46513 0.68407,2.26662 0.68917,0.79637 1.96031,0.79637 0.78106,0 1.78164,-0.28077 v 0.76064 q -0.77596,0.29098 -1.91437,0.29098 -1.64891,0 -2.54738,-1.00057 -0.89337,-1.00058 -0.89337,-2.84348 0,-1.15372 0.42882,-2.02157 0.43392,-0.86784 1.24561,-1.3375 0.8168,-0.46966 1.91947,-0.46966 1.17415,0 2.05221,0.42882 l -0.36756,0.74532 q -0.84743,-0.39818 -1.69486,-0.39818 z"
           style="font-family:'Open Sans';-inkscape-font-specification:'Open Sans'"
           id="path2880" /><path
           d="m 154.78385,133.47993 v -7.46348 h 0.86785 v 7.46348 z"
           style="font-family:'Open Sans';-inkscape-font-specification:'Open Sans'"
           id="path2882" /><path
           d="m 163.18665,133.47993 -0.9291,-2.37381 h -2.99152 l -0.9189,2.37381 h -0.87806 l 2.95068,-7.49411 h 0.73002 l 2.93536,7.49411 z m -1.19967,-3.15487 -0.86784,-2.31256 q -0.16847,-0.43903 -0.34714,-1.07715 -0.11231,0.49008 -0.32162,1.07715 l -0.87805,2.31256 z"
           style="font-family:'Open Sans';-inkscape-font-specification:'Open Sans'"
           id="path2884" /><path
           d="m 167.47484,133.47993 h -0.86785 v -6.69262 h -2.3636 v -0.77086 h 5.59506 v 0.77086 h -2.36361 z"
           style="font-family:'Open Sans';-inkscape-font-specification:'Open Sans'"
           id="path2886" /><path
           d="m 177.39382,126.01645 v 4.82931 q 0,1.27625 -0.77085,2.00626 -0.77086,0.73001 -2.11857,0.73001 -1.34772,0 -2.08794,-0.73511 -0.73511,-0.73512 -0.73511,-2.02158 v -4.80889 h 0.86784 v 4.87015 q 0,0.93422 0.5105,1.4345 0.5105,0.50029 1.50086,0.50029 0.94443,0 1.45492,-0.50029 0.5105,-0.50539 0.5105,-1.44471 v -4.85994 z"
           style="font-family:'Open Sans';-inkscape-font-specification:'Open Sans'"
           id="path2888" /><path
           d="m 181.03367,130.37611 v 3.10382 h -0.86784 v -7.46348 h 2.04709 q 1.37324,0 2.02668,0.52582 0.65854,0.52581 0.65854,1.58254 0,1.48044 -1.50086,2.00115 l 2.02668,3.35397 h -1.02611 l -1.80716,-3.10382 z m 0,-0.74533 h 1.18946 q 0.9189,0 1.34772,-0.36245 0.42882,-0.36756 0.42882,-1.09757 0,-0.74023 -0.43903,-1.06695 -0.43393,-0.32671 -1.39877,-0.32671 h -1.1282 z"
           style="font-family:'Open Sans';-inkscape-font-specification:'Open Sans'"
           id="path2890" /><path
           d="m 192.11659,133.47993 -0.92911,-2.37381 h -2.99152 l -0.91889,2.37381 h -0.87806 l 2.95068,-7.49411 h 0.73001 l 2.93536,7.49411 z m -1.19967,-3.15487 -0.86785,-2.31256 q -0.16846,-0.43903 -0.34714,-1.07715 -0.11231,0.49008 -0.32161,1.07715 l -0.87806,2.31256 z"
           style="font-family:'Open Sans';-inkscape-font-specification:'Open Sans'"
           id="path2892" /></g></g><g
       id="g20248"><path
         style="fill:#4d6789;fill-opacity:1;fill-rule:evenodd;stroke:none;stroke-width:0.999998;stroke-linecap:round;paint-order:fill markers stroke"
         d="m -80.232874,238.12499 14.364334,20.51365 h 14.914605 v -3.95641 h -12.855812 l -11.593462,-16.55724 z"
         id="path2414" /><path
         style="fill:#0088aa;fill-opacity:1;fill-rule:evenodd;stroke:none;stroke-width:0.999998;stroke-linecap:round;paint-order:fill markers stroke"
         d="m -73.793321,238.12499 10.670468,15.23885 h 4.829665 7.339253 v -3.9564 H -61.06343 l -7.900225,-11.28245 z"
         id="path2416" /><path
         id="path2404"
         style="fill:#0088aa;fill-opacity:1;fill-rule:evenodd;stroke:none;stroke-width:0.999998;stroke-linecap:round;paint-order:fill markers stroke"
         d="m -72.308139,217.61135 -14.364334,20.51364 18.057571,25.78844 h 17.660922 v -3.95641 h -15.602129 l -15.286699,-21.83203 14.363705,-20.51364 z" /><path
         style="fill:#5fbcd3;fill-opacity:1;fill-rule:evenodd;stroke:none;stroke-width:1;stroke-linecap:round;paint-order:fill markers stroke"
         d="m -63.122855,222.88614 -10.670468,15.23885 h 4.829666 l 7.900225,-11.28245 h 10.109495 v -3.9564 h -7.339253 z"
         id="path2422" /><path
         style="fill:#042560;fill-opacity:1;fill-rule:evenodd;stroke:none;stroke-width:1;stroke-linecap:round;paint-order:fill markers stroke"
         d="m -65.868542,217.61134 -14.364334,20.51365 h 4.829665 c 3.864487,-5.51908 7.728975,-11.03816 11.593462,-16.55724 h 12.855812 v -3.95641 z"
         id="path2420" /></g></g></svg>
